# xmcd
#
# Track frame offsets:
#	150
#	6894
#	21866
#	33534
#	42979
#	53365
#	63210
#	75578
#	90785
#	105121
#
# Disc length: 1636 seconds
#
# Revision: 1
# Processed by: cddbd v1.5.1PL0 Copyright (c) Steve Scherf et al.
# Submitted via: audiograbber 1.83.01
#
DISCID=5f06620a
DTITLE=Western Village Sebnitz - Man Banging's Country
DYEAR=2005
DGENRE=Country
TTITLE0=Hymne Western Village Sebnitz
TTITLE1=In Mary's Bar
TTITLE2=Stand By Your Man
TTITLE3=Detroit City
TTITLE4=On The Road Again
TTITLE5=Jambalaya
TTITLE6=Tom On The Road
TTITLE7=Original Dixieland
TTITLE8=Auld Lang Syne
TTITLE9=Amazing Grace
EXTD=Country Music from GERMANY
EXTT0=
EXTT1=
EXTT2=
EXTT3=
EXTT4=
EXTT5=
EXTT6=
EXTT7=
EXTT8=
EXTT9=
PLAYORDER=
